<svg xmlns="http://www.w3.org/2000/svg" width="512" height="512" viewBox="0 0 512 512">
<g stroke="#5a0a15" stroke-width="18" stroke-linejoin="round" stroke-linecap="round">
<path d="M293 69c70-31 121-29 144-23-2 51-24 121-93 188l-73 70-78-78 68-76c11-12 22-23 32-31z" fill="#f4f1ef"/>
<path d="M293 69c46-22 102-28 144-23-6 36-18 70-35 101z" fill="#f1263d"/>
<circle cx="330" cy="157" r="45" fill="#0ac7ff"/>
<circle cx="330" cy="157" r="27" fill="#0960a9" stroke="#fff" stroke-width="9"/>
<path d="M220 249l-85 23 31-92 52-38z" fill="#f1263d"/>
<path d="M322 301l-23 85 92-31 38-52z" fill="#f1263d"/>
<path d="M190 301c-61 37-95 87-105 148 43-12 79-34 109-65l27 49c43-48 56-98 40-149z" fill="#ff7500"/>
<path d="M174 325c-36 31-57 62-66 92 31-10 57-29 78-56l20 34c25-33 32-62 22-89z" fill="#ffd000" stroke-width="10"/>
</g></svg>